{
  "asset": {
    "version": "2.0",
    "generator": "generate_lightning_bolt_gltf.py"
  },
  "scene": 0,
  "scenes": [
    {
      "nodes": [
        0
      ]
    }
  ],
  "nodes": [
    {
      "name": "LightningBolt",
      "mesh": 0,
      "children": [
        1,
        2,
        3,
        4,
        5,
        6
      ],
      "extras": {
        "placements": {
          "root": [
            0.0,
            0.0,
            0.0
          ],
          "pivot_top": [
            0.0,
            0.432,
            0.0
          ],
          "pivot_mid": [
            0.0,
            0.0,
            0.0
          ],
          "pivot_tip": [
            0.22,
            -0.8280000000000001,
            0.0
          ],
          "impact_core": [
            -0.08,
            -0.054,
            0.0
          ],
          "front_emitter": [
            0.0,
            0.0,
            0.09
          ],
          "back_emitter": [
            0.0,
            0.0,
            -0.09
          ]
        },
        "animationHints": {
          "spine": [
            "pivot_top",
            "pivot_mid",
            "pivot_tip"
          ],
          "emitters": [
            "front_emitter",
            "back_emitter"
          ],
          "impactPoint": "impact_core"
        }
      }
    },
    {
      "name": "pivot_top",
      "translation": [
        0.0,
        0.432,
        0.0
      ]
    },
    {
      "name": "pivot_mid",
      "translation": [
        0.0,
        0.0,
        0.0
      ]
    },
    {
      "name": "pivot_tip",
      "translation": [
        0.22,
        -0.8280000000000001,
        0.0
      ]
    },
    {
      "name": "impact_core",
      "translation": [
        -0.08,
        -0.054,
        0.0
      ]
    },
    {
      "name": "front_emitter",
      "translation": [
        0.0,
        0.0,
        0.09
      ]
    },
    {
      "name": "back_emitter",
      "translation": [
        0.0,
        0.0,
        -0.09
      ]
    }
  ],
  "meshes": [
    {
      "name": "LightningBoltMesh",
      "primitives": [
        {
          "attributes": {
            "POSITION": 0,
            "NORMAL": 1,
            "TEXCOORD_0": 2
          },
          "indices": 3,
          "mode": 4
        }
      ]
    }
  ],
  "buffers": [
    {
      "byteLength": 1632,
      "uri": "data:application/octet-stream;base64,"
    }
  ],
  "bufferViews": [
    {
      "buffer": 0,
      "byteOffset": 0,
      "byteLength": 504,
      "target": 34962
    },
    {
      "buffer": 0,
      "byteOffset": 504,
      "byteLength": 504,
      "target": 34962
    },
    {
      "buffer": 0,
      "byteOffset": 1008,
      "byteLength": 336,
      "target": 34962
    },
    {
      "buffer": 0,
      "byteOffset": 1344,
      "byteLength": 288,
      "target": 34963
    }
  ],
  "accessors": [
    {
      "bufferView": 0,
      "componentType": 5126,
      "count": 42,
      "type": "VEC3",
      "min": [
        -0.24,
        -0.9,
        -0.09
      ],
      "max": [
        0.3,
        0.9,
        0.09
      ]
    },
    {
      "bufferView": 1,
      "componentType": 5126,
      "count": 42,
      "type": "VEC3"
    },
    {
      "bufferView": 2,
      "componentType": 5126,
      "count": 42,
      "type": "VEC2"
    },
    {
      "bufferView": 3,
      "componentType": 5125,
      "count": 72,
      "type": "SCALAR",
      "min": [
        0
      ],
      "max": [
        41
      ]
    }
  ]
}
